<svg id="svg" version="1.1" xmlns="http://www.w3.org/2000/svg" xmlns:xlink="http://www.w3.org/1999/xlink" width="400" height="400" viewBox="0, 0, 400,400"><g id="svgg"><path id="path0" d="M192.727 18.442 C 168.756 21.148,147.734 40.660,142.755 64.826 C 138.456 85.687,146.255 108.237,162.276 121.273 C 163.996 122.673,165.412 123.900,165.423 124.000 C 165.433 124.100,161.722 126.622,157.175 129.606 C 152.629 132.589,144.818 137.729,139.818 141.028 C 134.818 144.328,129.108 148.077,127.128 149.361 L 123.529 151.694 123.758 155.427 C 124.141 161.695,125.333 166.339,128.269 173.000 L 129.912 176.727 176.611 176.727 L 223.310 176.727 223.853 175.428 C 225.856 170.634,227.907 161.249,228.219 155.455 L 228.415 151.818 216.571 138.101 C 210.057 130.557,204.729 124.257,204.731 124.101 C 204.732 123.945,206.108 123.190,207.788 122.422 C 243.607 106.044,255.843 66.971,234.873 35.929 C 231.865 31.477,223.284 22.837,220.816 21.776 C 214.271 18.963,201.519 17.450,192.727 18.442 M200.782 30.856 C 209.180 33.589,210.670 39.438,205.083 47.747 C 195.420 62.116,169.890 76.617,162.958 71.673 C 154.726 65.801,163.774 41.741,177.175 33.871 C 184.042 29.838,193.817 28.590,200.782 30.856 M167.135 191.684 C 167.028 192.558,166.847 194.582,166.734 196.182 C 164.930 221.532,151.199 246.019,126.000 268.823 C 120.945 273.397,120.817 273.505,114.909 278.173 C 99.969 289.977,92.578 299.625,85.957 315.965 C 85.276 317.646,84.789 319.092,84.874 319.177 C 84.959 319.262,84.803 319.874,84.526 320.537 L 84.022 321.741 87.011 323.014 C 102.498 329.607,124.612 332.653,151.091 331.840 C 178.203 331.007,191.646 323.021,197.033 304.545 C 199.829 294.956,214.182 221.002,214.182 216.184 C 214.182 202.830,198.103 193.516,169.574 190.344 L 167.330 190.094 167.135 191.684 " stroke="none" fill="#6c9c44" fill-rule="evenodd"></path><path id="path1" d="M223.273 23.127 C 244.635 40.230,251.465 69.943,239.439 93.454 C 233.257 105.539,222.836 115.228,208.313 122.395 L 204.807 124.124 216.809 138.074 L 228.811 152.023 228.568 155.193 C 228.087 161.472,226.151 170.245,224.138 175.277 L 223.557 176.727 195.597 176.727 C 169.232 176.727,167.633 176.764,167.578 177.364 C 167.546 177.714,167.505 180.648,167.487 183.884 L 167.455 189.767 170.545 190.192 C 199.908 194.230,214.545 202.887,214.545 216.215 C 214.545 221.278,199.160 298.933,196.685 306.364 C 191.621 321.566,179.860 329.652,159.896 331.655 C 153.787 332.269,126.688 331.910,119.636 331.122 C 106.052 329.605,94.874 326.877,86.585 323.057 C 83.530 321.649,83.489 321.638,83.751 322.319 C 83.857 322.595,83.786 322.977,83.595 323.169 C 83.403 323.361,83.155 323.994,83.043 324.577 C 82.725 326.235,82.607 326.727,82.527 326.727 C 82.486 326.727,82.400 327.055,82.335 327.455 C 82.131 328.720,81.986 329.262,81.753 329.636 C 81.628 329.836,81.426 330.633,81.304 331.406 C 81.182 332.179,81.018 332.916,80.940 333.042 C 80.862 333.169,80.697 334.173,80.574 335.273 C 80.338 337.374,80.106 338.727,79.981 338.727 C 79.891 338.727,79.796 339.460,79.483 342.545 C 79.351 343.845,79.166 345.645,79.072 346.545 C 78.566 351.382,78.575 357.812,79.090 359.271 C 79.640 360.828,83.632 365.091,84.541 365.091 C 84.801 365.091,85.111 365.347,85.231 365.659 C 85.351 365.972,85.614 366.126,85.816 366.002 C 86.017 365.877,86.182 365.958,86.182 366.182 C 86.182 366.405,86.345 366.487,86.545 366.364 C 86.745 366.240,86.909 366.312,86.909 366.524 C 86.909 366.736,87.155 366.909,87.455 366.909 C 87.755 366.909,88.000 367.082,88.000 367.294 C 88.000 367.506,88.164 367.578,88.364 367.455 C 88.564 367.331,88.727 367.413,88.727 367.636 C 88.727 367.860,88.891 367.942,89.091 367.818 C 89.291 367.695,89.455 367.732,89.455 367.901 C 89.455 368.070,89.808 368.235,90.240 368.268 C 90.672 368.301,91.160 368.540,91.325 368.800 C 91.490 369.060,91.628 369.130,91.631 368.955 C 91.634 368.781,91.907 368.863,92.238 369.137 C 92.568 369.412,92.894 369.600,92.961 369.555 C 93.143 369.435,94.245 369.813,95.273 370.350 C 96.083 370.773,98.063 371.322,98.812 371.331 C 98.965 371.333,99.295 371.504,99.545 371.712 C 99.795 371.919,100.000 371.967,100.000 371.818 C 100.000 371.669,100.205 371.710,100.455 371.908 C 100.881 372.246,103.062 372.763,103.778 372.696 C 103.955 372.679,104.212 372.845,104.348 373.066 C 104.555 373.400,106.031 373.715,108.273 373.902 C 108.523 373.922,108.727 374.071,108.727 374.231 C 108.727 374.391,108.965 374.431,109.255 374.320 C 109.546 374.209,109.996 374.250,110.255 374.412 C 110.515 374.573,111.055 374.741,111.455 374.785 C 111.855 374.829,112.836 375.026,113.636 375.222 C 114.436 375.419,115.664 375.625,116.364 375.679 C 117.064 375.733,117.800 375.866,118.000 375.974 C 118.200 376.082,118.650 376.194,119.000 376.222 C 119.350 376.250,119.759 376.318,119.909 376.374 C 120.059 376.430,120.591 376.514,121.091 376.561 C 121.591 376.608,122.082 376.686,122.182 376.735 C 122.282 376.784,122.855 376.865,123.455 376.916 C 124.055 376.966,125.200 377.120,126.000 377.258 C 127.461 377.510,129.270 377.746,131.636 377.994 C 132.336 378.067,132.909 378.156,132.909 378.191 C 132.909 378.226,133.564 378.308,134.364 378.371 C 135.164 378.435,136.636 378.579,137.636 378.690 C 139.257 378.869,141.208 379.055,146.000 379.483 C 151.511 379.976,161.785 380.593,170.727 380.967 C 177.806 381.264,222.557 381.264,229.636 380.967 C 237.232 380.649,245.337 380.190,250.182 379.803 C 251.482 379.699,253.282 379.557,254.182 379.486 C 256.627 379.295,260.673 378.918,262.727 378.690 C 263.727 378.579,265.200 378.435,266.000 378.371 C 266.800 378.308,267.455 378.226,267.455 378.191 C 267.455 378.156,268.027 378.067,268.727 377.994 C 271.093 377.746,272.903 377.510,274.364 377.258 C 275.164 377.120,276.309 376.966,276.909 376.916 C 277.509 376.865,278.082 376.784,278.182 376.735 C 278.282 376.686,278.773 376.608,279.273 376.561 C 279.773 376.514,280.305 376.430,280.455 376.374 C 280.605 376.318,281.014 376.250,281.364 376.222 C 281.714 376.194,282.164 376.082,282.364 375.974 C 282.564 375.866,283.300 375.733,284.000 375.679 C 284.700 375.625,285.927 375.419,286.727 375.222 C 287.527 375.026,288.509 374.817,288.909 374.760 C 289.309 374.702,289.915 374.534,290.255 374.386 C 290.596 374.238,291.046 374.223,291.255 374.353 C 291.465 374.482,291.636 374.442,291.636 374.264 C 291.636 374.085,291.841 373.922,292.091 373.902 C 294.332 373.715,295.809 373.400,296.015 373.066 C 296.152 372.845,296.369 372.686,296.498 372.712 C 297.036 372.820,299.489 372.242,299.909 371.908 C 300.159 371.710,300.364 371.669,300.364 371.818 C 300.364 371.967,300.634 371.864,300.965 371.590 C 301.296 371.315,301.626 371.144,301.698 371.209 C 301.922 371.411,304.133 370.851,305.091 370.350 C 306.119 369.813,307.220 369.435,307.402 369.555 C 307.470 369.600,307.795 369.412,308.126 369.137 C 308.457 368.863,308.730 368.781,308.733 368.955 C 308.736 369.130,308.873 369.060,309.038 368.800 C 309.203 368.540,309.692 368.301,310.124 368.268 C 310.556 368.235,310.909 368.070,310.909 367.901 C 310.909 367.732,311.073 367.695,311.273 367.818 C 311.473 367.942,311.636 367.860,311.636 367.636 C 311.636 367.413,311.800 367.331,312.000 367.455 C 312.200 367.578,312.364 367.506,312.364 367.294 C 312.364 367.082,312.609 366.909,312.909 366.909 C 313.209 366.909,313.455 366.736,313.455 366.524 C 313.455 366.312,313.612 366.236,313.805 366.355 C 313.998 366.475,314.489 366.239,314.896 365.831 C 315.303 365.424,315.800 365.091,316.000 365.091 C 316.200 365.091,316.364 364.900,316.364 364.667 C 316.364 364.433,316.464 364.343,316.588 364.466 C 317.020 364.899,320.750 360.755,321.280 359.252 C 321.804 357.767,321.788 348.402,321.257 345.651 C 321.047 344.562,320.743 342.176,320.562 340.182 C 320.507 339.582,320.423 339.009,320.374 338.909 C 320.326 338.809,320.243 338.236,320.190 337.636 C 320.138 337.036,320.061 336.545,320.019 336.545 C 319.925 336.545,319.705 335.474,319.458 333.818 C 319.261 332.492,319.015 331.221,318.895 330.909 C 318.857 330.809,318.787 330.564,318.741 330.364 C 318.694 330.164,318.619 329.918,318.573 329.818 C 318.424 329.493,317.957 327.448,317.597 325.541 C 317.473 324.889,317.234 324.270,317.066 324.166 C 316.897 324.062,316.851 323.736,316.964 323.443 C 317.078 323.146,316.963 322.909,316.706 322.909 C 316.451 322.909,316.350 322.801,316.482 322.670 C 316.613 322.538,316.553 322.228,316.348 321.981 C 316.142 321.733,316.005 321.391,316.043 321.220 C 316.081 321.049,315.842 320.301,315.511 319.557 C 315.180 318.814,314.909 317.873,314.909 317.466 C 314.909 317.060,314.745 316.727,314.545 316.727 C 314.345 316.727,314.182 316.427,314.182 316.061 C 314.182 315.694,314.069 315.281,313.930 315.142 C 313.792 315.004,313.624 314.533,313.557 314.097 C 313.491 313.661,313.266 313.199,313.058 313.070 C 312.849 312.942,312.639 312.607,312.591 312.327 C 312.434 311.423,308.748 304.214,308.012 303.371 C 307.797 303.125,307.626 302.797,307.632 302.644 C 307.638 302.490,307.396 302.075,307.094 301.723 C 306.792 301.371,306.545 300.921,306.545 300.723 C 306.545 300.525,306.372 300.364,306.160 300.364 C 305.949 300.364,305.865 300.219,305.974 300.043 C 306.179 299.710,304.978 297.969,304.009 297.193 C 303.704 296.950,303.584 296.745,303.742 296.739 C 304.075 296.725,303.507 295.968,302.091 294.537 C 301.541 293.981,301.091 293.407,301.091 293.260 C 301.091 293.114,300.477 292.356,299.727 291.577 C 294.637 286.287,291.430 283.091,291.213 283.091 C 290.957 283.091,290.057 282.293,288.649 280.818 C 288.220 280.368,287.670 280.000,287.428 280.000 C 287.185 280.000,286.893 279.755,286.778 279.455 C 286.662 279.155,286.382 278.909,286.155 278.909 C 285.927 278.909,285.418 278.498,285.023 277.997 C 284.628 277.495,284.184 277.159,284.036 277.251 C 283.887 277.342,283.513 277.139,283.204 276.800 C 282.895 276.460,282.036 275.691,281.294 275.091 C 280.553 274.491,279.359 273.427,278.641 272.727 C 277.923 272.027,277.475 271.700,277.646 272.000 C 277.817 272.300,277.357 271.973,276.623 271.273 C 275.889 270.573,274.130 268.936,272.715 267.636 C 268.125 263.421,265.637 260.916,265.738 260.609 C 265.792 260.444,265.677 260.408,265.482 260.529 C 265.287 260.649,264.928 260.375,264.685 259.920 C 264.441 259.465,263.369 258.254,262.303 257.230 C 261.236 256.205,260.364 255.249,260.364 255.105 C 260.364 254.879,259.343 253.698,257.030 251.248 C 256.697 250.895,256.507 250.524,256.607 250.423 C 256.708 250.322,256.368 249.964,255.853 249.626 C 255.337 249.288,254.987 248.895,255.075 248.754 C 255.162 248.612,254.915 248.267,254.526 247.986 C 254.137 247.705,253.818 247.303,253.818 247.091 C 253.818 246.880,253.532 246.437,253.182 246.106 C 252.178 245.159,251.636 244.426,251.636 244.015 C 251.636 243.807,251.492 243.636,251.315 243.636 C 251.138 243.636,250.898 243.350,250.780 243.000 C 250.476 242.095,249.714 240.959,249.182 240.618 C 248.932 240.458,248.727 240.090,248.727 239.800 C 248.727 239.510,248.441 238.972,248.091 238.604 C 247.275 237.748,246.644 236.780,246.156 235.637 C 245.942 235.137,245.493 234.425,245.157 234.053 C 244.820 233.682,244.601 233.354,244.670 233.325 C 244.882 233.236,243.854 231.106,243.462 230.824 C 243.258 230.677,243.225 230.554,243.388 230.551 C 243.552 230.548,243.352 230.077,242.945 229.504 C 242.537 228.932,242.308 228.359,242.435 228.232 C 242.562 228.104,242.476 228.000,242.242 228.000 C 242.009 228.000,241.818 227.673,241.818 227.273 C 241.818 226.873,241.681 226.545,241.513 226.545 C 241.110 226.545,240.364 224.882,240.364 223.983 C 240.364 223.592,240.200 223.273,240.000 223.273 C 239.800 223.273,239.636 222.978,239.636 222.618 C 239.636 222.258,239.440 221.767,239.200 221.527 C 238.960 221.287,238.882 221.091,239.026 221.091 C 239.170 221.091,238.964 220.457,238.568 219.681 C 238.173 218.906,237.947 218.174,238.067 218.054 C 238.187 217.934,238.100 217.612,237.873 217.339 C 237.646 217.066,237.569 216.735,237.700 216.603 C 237.832 216.471,237.748 216.364,237.515 216.364 C 237.282 216.364,237.110 216.241,237.134 216.091 C 237.158 215.941,237.145 215.736,237.106 215.636 C 237.006 215.379,236.726 214.130,236.578 213.273 C 236.508 212.873,236.267 212.082,236.041 211.515 C 235.816 210.948,235.724 210.335,235.837 210.151 C 235.950 209.968,235.903 209.818,235.732 209.818 C 235.561 209.818,235.381 209.219,235.332 208.486 C 235.282 207.753,235.129 206.976,234.990 206.759 C 234.852 206.541,234.715 206.077,234.687 205.727 C 234.659 205.377,234.594 205.050,234.541 205.000 C 234.489 204.950,234.402 204.336,234.348 203.636 C 234.294 202.936,234.224 202.364,234.193 202.364 C 234.136 202.364,233.946 201.051,233.640 198.545 C 233.281 195.615,233.044 190.299,232.979 183.727 L 232.909 176.727 251.524 176.727 C 270.769 176.727,270.567 176.742,270.784 175.309 C 270.826 175.029,271.076 174.663,271.339 174.497 C 271.603 174.330,271.690 174.190,271.533 174.187 C 271.376 174.184,271.450 173.814,271.697 173.364 C 271.944 172.914,272.187 172.303,272.235 172.007 C 272.284 171.710,272.497 171.410,272.707 171.340 C 272.918 171.270,273.091 170.817,273.091 170.333 C 273.091 169.850,273.249 169.455,273.443 169.455 C 273.637 169.455,273.701 169.209,273.586 168.909 C 273.471 168.609,273.537 168.364,273.734 168.364 C 274.045 168.364,274.421 167.296,274.758 165.455 C 274.813 165.155,274.960 164.500,275.086 164.000 C 275.212 163.500,275.375 162.845,275.448 162.545 C 275.521 162.245,275.606 162.000,275.636 162.000 C 275.723 162.000,275.952 160.712,276.218 158.727 C 276.518 156.491,276.616 151.387,276.355 151.636 C 276.250 151.736,275.688 151.377,275.107 150.838 C 274.525 150.298,273.916 149.940,273.752 150.041 C 273.588 150.142,273.455 150.051,273.455 149.840 C 273.455 149.628,273.204 149.455,272.898 149.455 C 272.591 149.455,272.247 149.210,272.132 148.911 C 272.018 148.612,271.777 148.458,271.598 148.569 C 271.419 148.680,271.273 148.597,271.273 148.385 C 271.273 148.173,271.045 148.000,270.766 148.000 C 270.488 148.000,270.161 147.744,270.041 147.431 C 269.921 147.119,269.657 146.966,269.455 147.091 C 269.252 147.216,268.988 147.064,268.868 146.752 C 268.749 146.441,268.526 146.263,268.374 146.357 C 268.222 146.451,267.805 146.205,267.447 145.810 C 267.089 145.414,266.576 145.091,266.307 145.091 C 266.038 145.091,265.818 144.958,265.818 144.795 C 265.818 144.632,265.245 144.225,264.545 143.891 C 263.845 143.558,263.273 143.144,263.273 142.973 C 263.273 142.689,262.025 141.974,261.356 141.875 C 261.202 141.853,260.641 141.430,260.108 140.936 C 259.576 140.443,259.006 140.122,258.843 140.223 C 258.679 140.324,258.545 140.233,258.545 140.021 C 258.545 139.810,258.318 139.636,258.039 139.636 C 257.760 139.636,257.434 139.381,257.314 139.068 C 257.194 138.755,256.931 138.601,256.730 138.726 C 256.528 138.850,256.364 138.797,256.364 138.608 C 256.364 138.419,255.791 137.993,255.091 137.661 C 254.391 137.329,253.818 136.891,253.818 136.689 C 253.818 136.486,253.676 136.408,253.503 136.515 C 253.330 136.623,252.895 136.387,252.538 135.991 C 252.180 135.596,251.667 135.273,251.398 135.273 C 251.129 135.273,250.909 135.120,250.909 134.934 C 250.909 134.747,250.579 134.490,250.175 134.362 C 249.771 134.233,248.959 133.691,248.370 133.155 C 247.781 132.620,246.515 131.777,245.558 131.282 C 244.601 130.787,243.685 130.170,243.523 129.911 C 243.361 129.651,243.092 129.524,242.925 129.627 C 242.758 129.730,242.524 129.559,242.404 129.248 C 242.285 128.936,242.044 128.770,241.869 128.877 C 241.695 128.985,241.259 128.750,240.901 128.355 C 240.544 127.960,240.026 127.636,239.750 127.636 C 239.475 127.636,239.156 127.392,239.041 127.093 C 238.927 126.794,238.708 126.627,238.556 126.721 C 238.404 126.815,237.986 126.569,237.629 126.173 C 237.271 125.778,236.842 125.455,236.675 125.455 C 236.167 125.455,234.909 124.232,234.909 123.737 C 234.909 123.482,235.151 123.273,235.446 123.273 C 235.742 123.273,236.251 122.864,236.579 122.364 C 236.907 121.864,237.342 121.455,237.546 121.455 C 237.751 121.455,238.407 120.882,239.005 120.182 C 239.603 119.482,240.289 118.909,240.528 118.909 C 240.966 118.909,242.545 117.418,242.545 117.005 C 242.545 116.884,243.255 116.076,244.121 115.209 C 244.988 114.342,245.914 113.225,246.179 112.726 C 246.444 112.227,246.965 111.602,247.337 111.339 C 247.708 111.075,247.917 110.706,247.801 110.518 C 247.685 110.330,247.845 110.079,248.157 109.959 C 248.468 109.840,248.633 109.595,248.522 109.416 C 248.411 109.237,248.494 109.091,248.706 109.091 C 248.918 109.091,249.091 108.845,249.091 108.545 C 249.091 108.245,249.243 108.000,249.428 108.000 C 249.614 108.000,250.206 107.069,250.744 105.930 C 251.283 104.792,251.949 103.635,252.225 103.359 C 252.501 103.083,252.748 102.705,252.773 102.519 C 252.864 101.839,252.961 101.602,253.874 99.818 C 254.386 98.818,254.938 97.509,255.100 96.909 C 255.445 95.634,255.449 95.620,255.741 94.909 C 256.162 93.880,256.884 91.091,256.846 90.636 C 256.825 90.386,256.939 90.182,257.099 90.182 C 257.259 90.182,257.344 89.895,257.288 89.545 C 257.231 89.195,257.279 88.748,257.394 88.552 C 257.703 88.022,258.051 85.510,258.427 81.091 C 258.796 76.768,258.615 71.153,258.019 68.364 C 257.912 67.864,257.742 66.800,257.643 66.000 C 257.389 63.965,257.180 63.002,256.666 61.492 C 256.421 60.771,256.207 60.018,256.191 59.818 C 256.102 58.728,255.534 57.091,255.244 57.091 C 255.060 57.091,254.939 56.968,254.975 56.818 C 255.092 56.336,254.076 53.455,253.790 53.455 C 253.637 53.455,253.399 52.940,253.261 52.311 C 253.123 51.682,252.537 50.366,251.960 49.386 C 251.382 48.406,250.909 47.489,250.908 47.348 C 250.908 47.206,250.426 46.528,249.838 45.840 C 249.251 45.152,248.845 44.467,248.938 44.317 C 249.030 44.167,248.897 43.912,248.640 43.750 C 248.384 43.587,247.723 42.757,247.170 41.904 C 246.617 41.052,245.654 39.865,245.029 39.268 C 244.404 38.671,244.008 38.182,244.150 38.182 C 244.292 38.182,242.937 36.750,241.138 35.000 C 237.438 31.400,236.877 30.909,236.466 30.909 C 236.306 30.909,235.961 30.566,235.699 30.146 C 235.437 29.727,235.134 29.472,235.027 29.579 C 234.919 29.687,234.399 29.372,233.870 28.879 C 233.342 28.386,232.227 27.652,231.393 27.246 C 230.559 26.841,229.682 26.274,229.443 25.986 C 229.204 25.698,228.875 25.545,228.711 25.646 C 228.548 25.747,228.318 25.674,228.200 25.484 C 227.936 25.057,225.882 23.993,224.950 23.801 C 224.573 23.723,224.000 23.433,223.677 23.158 C 223.355 22.882,222.845 22.533,222.545 22.382 C 222.245 22.231,222.573 22.566,223.273 23.127 " stroke="none" fill="#4c7b3c" fill-rule="evenodd"></path><path id="path2" d="M186.936 30.214 C 172.480 33.050,159.507 49.373,160.086 64.000 C 160.508 74.672,168.580 75.443,183.947 66.279 C 198.972 57.318,209.434 44.863,208.178 37.431 C 207.276 32.090,196.329 28.371,186.936 30.214 " stroke="none" fill="#93bb4b" fill-rule="evenodd"></path><path id="path3" d="M227.985 27.727 C 229.492 29.333,229.818 29.621,229.818 29.348 C 229.818 29.290,229.041 28.513,228.091 27.621 L 226.364 26.000 227.985 27.727 M139.364 177.000 C 144.514 177.057,152.941 177.057,158.091 177.000 C 163.241 176.943,159.027 176.896,148.727 176.896 C 138.427 176.896,134.214 176.943,139.364 177.000 M187.980 320.273 L 186.727 321.636 188.091 320.383 C 189.360 319.217,189.622 318.909,189.344 318.909 C 189.283 318.909,188.670 319.523,187.980 320.273 M134.818 331.899 C 135.468 331.980,136.532 331.980,137.182 331.899 C 137.832 331.819,137.300 331.753,136.000 331.753 C 134.700 331.753,134.168 331.819,134.818 331.899 M153.368 331.894 C 153.820 331.981,154.475 331.977,154.822 331.886 C 155.170 331.795,154.800 331.724,154.000 331.728 C 153.200 331.732,152.916 331.807,153.368 331.894 " stroke="none" fill="#64933c" fill-rule="evenodd"></path><path id="path4" d="M245.210 68.909 C 245.212 70.309,245.278 70.837,245.356 70.083 C 245.435 69.328,245.434 68.183,245.353 67.537 C 245.273 66.892,245.209 67.509,245.210 68.909 M228.364 108.182 C 227.480 109.082,226.839 109.818,226.939 109.818 C 227.039 109.818,227.844 109.082,228.727 108.182 C 229.611 107.282,230.251 106.545,230.151 106.545 C 230.051 106.545,229.247 107.282,228.364 108.182 M214.281 216.364 C 214.281 217.264,214.352 217.632,214.438 217.182 C 214.525 216.732,214.525 215.995,214.438 215.545 C 214.352 215.095,214.281 215.464,214.281 216.364 M132.091 331.887 C 132.441 331.978,133.014 331.978,133.364 331.887 C 133.714 331.796,133.427 331.721,132.727 331.721 C 132.027 331.721,131.741 331.796,132.091 331.887 " stroke="none" fill="#5c8c3c" fill-rule="evenodd"></path><path id="path5" d="M224.155 23.462 C 224.541 23.754,224.945 23.903,225.054 23.795 C 225.282 23.566,224.359 22.917,223.818 22.926 C 223.618 22.930,223.770 23.171,224.155 23.462 M240.000 33.950 C 240.000 34.050,240.491 34.482,241.091 34.909 C 241.691 35.336,242.182 35.604,242.182 35.504 C 242.182 35.404,241.691 34.973,241.091 34.545 C 240.491 34.118,240.000 33.850,240.000 33.950 M244.759 39.049 C 245.214 39.572,245.658 40.000,245.746 40.000 C 246.073 40.000,244.831 38.398,244.390 38.251 C 244.138 38.167,244.305 38.527,244.759 39.049 M247.562 42.543 C 247.903 43.142,248.316 43.633,248.479 43.634 C 248.643 43.635,248.427 43.145,248.000 42.545 C 247.002 41.144,246.765 41.142,247.562 42.543 M249.175 45.091 C 249.425 45.491,249.755 45.818,249.909 45.818 C 250.062 45.818,249.984 45.491,249.734 45.091 C 249.484 44.691,249.154 44.364,249.000 44.364 C 248.847 44.364,248.925 44.691,249.175 45.091 M253.303 52.364 C 253.573 53.376,253.744 53.649,253.970 53.424 C 254.054 53.340,253.883 52.863,253.591 52.363 L 253.061 51.455 253.303 52.364 M258.630 79.273 C 258.630 79.973,258.705 80.259,258.796 79.909 C 258.888 79.559,258.888 78.986,258.796 78.636 C 258.705 78.286,258.630 78.573,258.630 79.273 M251.485 104.234 C 251.138 105.137,251.520 105.260,251.983 104.395 C 252.207 103.977,252.237 103.636,252.052 103.636 C 251.866 103.636,251.611 103.905,251.485 104.234 M243.312 116.021 C 242.834 116.420,242.520 116.823,242.614 116.917 C 242.708 117.011,243.169 116.680,243.638 116.180 C 244.658 115.094,244.511 115.022,243.312 116.021 M239.148 120.000 C 238.614 120.600,238.310 121.091,238.475 121.091 C 238.639 121.091,239.243 120.600,239.818 120.000 C 240.393 119.400,240.696 118.909,240.492 118.909 C 240.287 118.909,239.683 119.400,239.148 120.000 M248.364 133.254 C 248.364 133.354,248.855 133.690,249.455 134.000 C 250.055 134.310,250.545 134.482,250.545 134.382 C 250.545 134.282,250.055 133.947,249.455 133.636 C 248.855 133.326,248.364 133.154,248.364 133.254 M263.273 143.072 C 263.273 143.172,263.764 143.508,264.364 143.818 C 264.964 144.128,265.455 144.300,265.455 144.200 C 265.455 144.100,264.964 143.765,264.364 143.455 C 263.764 143.144,263.273 142.972,263.273 143.072 M251.545 176.636 C 233.927 176.728,232.729 176.774,232.756 177.367 C 232.773 177.747,232.858 177.818,232.968 177.545 C 233.111 177.190,237.190 177.091,251.645 177.091 C 263.582 177.091,270.219 176.962,270.364 176.727 C 270.487 176.527,270.538 176.403,270.476 176.451 C 270.414 176.499,261.895 176.583,251.545 176.636 M167.392 187.091 C 167.394 188.491,167.459 189.019,167.538 188.265 C 167.617 187.510,167.616 186.365,167.535 185.719 C 167.455 185.074,167.390 185.691,167.392 187.091 M238.249 219.092 C 238.477 219.593,238.712 219.954,238.772 219.895 C 238.993 219.673,238.449 218.182,238.147 218.182 C 237.975 218.182,238.020 218.592,238.249 219.092 M240.388 224.364 C 240.389 224.664,240.636 225.318,240.937 225.818 L 241.485 226.727 241.244 225.818 C 240.894 224.499,240.385 223.634,240.388 224.364 M260.364 255.094 C 260.364 255.212,260.972 255.914,261.716 256.654 C 262.460 257.394,262.837 257.673,262.553 257.273 C 261.885 256.330,260.364 254.817,260.364 255.094 M264.364 259.422 C 264.364 259.725,270.041 265.455,270.342 265.455 C 270.732 265.455,270.527 265.225,267.455 262.203 C 265.755 260.531,264.364 259.280,264.364 259.422 M273.679 268.560 C 274.012 269.068,274.630 269.662,275.051 269.879 C 275.566 270.143,275.406 269.840,274.565 268.955 C 273.088 267.401,272.850 267.295,273.679 268.560 M290.182 282.093 C 290.182 282.293,290.427 282.660,290.727 282.909 C 291.032 283.162,291.273 283.201,291.273 282.998 C 291.273 282.798,291.027 282.431,290.727 282.182 C 290.423 281.929,290.182 281.890,290.182 282.093 M295.962 287.705 C 297.983 289.743,299.636 291.525,299.636 291.666 C 299.636 291.807,299.923 292.032,300.273 292.165 C 300.962 292.428,300.000 291.316,295.651 286.818 C 294.152 285.268,292.783 284.000,292.607 284.000 C 292.432 284.000,293.941 285.667,295.962 287.705 M308.727 304.687 C 308.727 304.865,309.063 305.397,309.473 305.869 L 310.218 306.727 309.645 305.545 C 309.081 304.383,308.727 304.051,308.727 304.687 M314.938 317.739 C 314.903 318.296,315.885 320.727,316.145 320.727 C 316.245 320.727,316.111 320.195,315.847 319.545 C 315.583 318.895,315.277 318.118,315.167 317.818 C 315.037 317.465,314.956 317.437,314.938 317.739 M319.495 334.364 C 319.794 335.701,320.002 335.991,319.994 335.061 C 319.991 334.677,319.823 334.118,319.620 333.818 C 319.350 333.420,319.316 333.567,319.495 334.364 M78.993 345.091 C 78.993 345.791,79.068 346.077,79.160 345.727 C 79.251 345.377,79.251 344.805,79.160 344.455 C 79.068 344.105,78.993 344.391,78.993 345.091 M78.545 358.779 C 78.545 359.174,78.789 359.815,79.086 360.203 C 79.577 360.845,79.589 360.793,79.214 359.636 C 78.702 358.058,78.545 357.857,78.545 358.779 M321.168 359.545 C 320.800 360.770,320.813 360.837,321.289 360.203 C 321.751 359.587,322.035 358.182,321.697 358.182 C 321.631 358.182,321.393 358.795,321.168 359.545 M80.946 362.538 C 81.701 363.334,82.394 363.909,82.487 363.816 C 82.659 363.644,80.106 361.091,79.762 361.091 C 79.659 361.091,80.192 361.742,80.946 362.538 M319.084 362.395 C 317.931 363.582,317.630 364.000,317.925 364.000 C 317.984 364.000,318.652 363.345,319.410 362.545 C 320.168 361.745,320.690 361.091,320.570 361.091 C 320.449 361.091,319.781 361.678,319.084 362.395 M140.091 379.160 C 140.441 379.251,141.014 379.251,141.364 379.160 C 141.714 379.068,141.427 378.993,140.727 378.993 C 140.027 378.993,139.741 379.068,140.091 379.160 M259.000 379.160 C 259.350 379.251,259.923 379.251,260.273 379.160 C 260.623 379.068,260.336 378.993,259.636 378.993 C 258.936 378.993,258.650 379.068,259.000 379.160 M252.000 379.636 C 251.251 379.876,251.219 379.933,251.818 379.958 C 252.218 379.975,252.791 379.830,253.091 379.636 C 253.728 379.225,253.286 379.225,252.000 379.636 M152.000 379.995 C 152.300 380.192,152.941 380.355,153.424 380.358 C 154.591 380.365,154.296 380.159,152.727 379.871 C 151.832 379.707,151.616 379.743,152.000 379.995 M247.091 380.000 C 246.085 380.256,246.070 380.280,246.909 380.315 C 247.409 380.336,248.064 380.194,248.364 380.000 C 248.983 379.600,248.663 379.600,247.091 380.000 M166.273 380.978 C 166.623 381.069,167.195 381.069,167.545 380.978 C 167.895 380.886,167.609 380.812,166.909 380.812 C 166.209 380.812,165.923 380.886,166.273 380.978 M232.818 380.978 C 233.168 381.069,233.741 381.069,234.091 380.978 C 234.441 380.886,234.155 380.812,233.455 380.812 C 232.755 380.812,232.468 380.886,232.818 380.978 M189.727 381.348 C 190.177 381.434,190.914 381.434,191.364 381.348 C 191.814 381.261,191.445 381.190,190.545 381.190 C 189.645 381.190,189.277 381.261,189.727 381.348 M209.000 381.348 C 209.450 381.434,210.186 381.434,210.636 381.348 C 211.086 381.261,210.718 381.190,209.818 381.190 C 208.918 381.190,208.550 381.261,209.000 381.348 " stroke="none" fill="#4c7c34" fill-rule="evenodd"></path><path id="path6" d="M228.473 153.455 C 228.473 154.555,228.541 155.005,228.624 154.455 C 228.707 153.905,228.707 153.005,228.624 152.455 C 228.541 151.905,228.473 152.355,228.473 153.455 M129.909 331.887 C 130.259 331.978,130.832 331.978,131.182 331.887 C 131.532 331.796,131.245 331.721,130.545 331.721 C 129.845 331.721,129.559 331.796,129.909 331.887 " stroke="none" fill="#54843c" fill-rule="evenodd"></path><path id="path7" d="" stroke="none" fill="#5c843c" fill-rule="evenodd"></path><path id="path8" d="M199.081 54.636 L 196.545 57.273 199.182 54.737 C 200.632 53.342,201.818 52.156,201.818 52.101 C 201.818 51.834,201.436 52.188,199.081 54.636 " stroke="none" fill="#70ac40" fill-rule="evenodd"></path></g></svg>